<svg width="129" height="26" viewBox="0 0 129 26" fill="none" xmlns="http://www.w3.org/2000/svg">
<path d="M6.18 1.92L12.63 17.82L10.11 17.31L15.96 1.92H21.12L11.04 25.02L0.96 1.92H6.18ZM24.2498 0.329999H28.4498V24H24.2498V0.329999ZM38.2952 24.36C37.0752 24.36 35.9652 24.12 34.9652 23.64C33.9852 23.14 33.2052 22.38 32.6252 21.36C32.0452 20.34 31.7552 19.04 31.7552 17.46C31.7552 15.98 32.0552 14.7 32.6552 13.62C33.2552 12.54 34.0452 11.71 35.0252 11.13C36.0052 10.53 37.0452 10.23 38.1452 10.23C39.4452 10.23 40.4252 10.45 41.0852 10.89C41.7652 11.31 42.3252 11.78 42.7652 12.3L42.5852 12.81L42.9752 10.89H46.8752V24H42.6752V21.15L43.0052 22.05C42.9652 22.05 42.8452 22.17 42.6452 22.41C42.4452 22.63 42.1452 22.9 41.7452 23.22C41.3652 23.52 40.8852 23.78 40.3052 24C39.7452 24.24 39.0752 24.36 38.2952 24.36ZM39.4952 20.94C39.9952 20.94 40.4452 20.87 40.8452 20.73C41.2452 20.57 41.5952 20.35 41.8952 20.07C42.1952 19.77 42.4552 19.4 42.6752 18.96V15.75C42.5152 15.31 42.2752 14.94 41.9552 14.64C41.6352 14.32 41.2552 14.08 40.8152 13.92C40.3752 13.74 39.8852 13.65 39.3452 13.65C38.7452 13.65 38.1852 13.81 37.6652 14.13C37.1652 14.43 36.7652 14.85 36.4652 15.39C36.1652 15.93 36.0152 16.55 36.0152 17.25C36.0152 17.95 36.1752 18.58 36.4952 19.14C36.8152 19.7 37.2352 20.14 37.7552 20.46C38.2952 20.78 38.8752 20.94 39.4952 20.94ZM56.543 24.36C55.323 24.36 54.233 24.08 53.273 23.52C52.313 22.94 51.553 22.11 50.993 21.03C50.453 19.95 50.183 18.67 50.183 17.19C50.183 15.71 50.483 14.45 51.083 13.41C51.683 12.37 52.503 11.58 53.543 11.04C54.583 10.5 55.763 10.23 57.083 10.23C57.923 10.23 58.723 10.36 59.483 10.62C60.263 10.88 60.913 11.28 61.433 11.82V13.14V0.329999H65.603V24H61.403V21.45L61.733 22.35C61.053 22.91 60.293 23.39 59.453 23.79C58.613 24.17 57.643 24.36 56.543 24.36ZM57.923 20.82C58.483 20.82 58.973 20.75 59.393 20.61C59.833 20.45 60.213 20.23 60.533 19.95C60.873 19.65 61.163 19.28 61.403 18.84V15.63C61.243 15.19 60.993 14.82 60.653 14.52C60.333 14.2 59.933 13.96 59.453 13.8C58.993 13.62 58.483 13.53 57.923 13.53C57.303 13.53 56.723 13.69 56.183 14.01C55.663 14.31 55.243 14.73 54.923 15.27C54.603 15.81 54.443 16.43 54.443 17.13C54.443 17.83 54.603 18.46 54.923 19.02C55.243 19.58 55.663 20.02 56.183 20.34C56.723 20.66 57.303 20.82 57.923 20.82ZM75.2637 24.36C74.0437 24.36 72.9537 24.08 71.9937 23.52C71.0337 22.94 70.2737 22.11 69.7137 21.03C69.1737 19.95 68.9037 18.67 68.9037 17.19C68.9037 15.71 69.2037 14.45 69.8037 13.41C70.4037 12.37 71.2237 11.58 72.2637 11.04C73.3037 10.5 74.4837 10.23 75.8037 10.23C76.6437 10.23 77.4437 10.36 78.2037 10.62C78.9837 10.88 79.6337 11.28 80.1537 11.82V13.14V0.329999H84.3237V24H80.1237V21.45L80.4537 22.35C79.7737 22.91 79.0137 23.39 78.1737 23.79C77.3337 24.17 76.3637 24.36 75.2637 24.36ZM76.6437 20.82C77.2037 20.82 77.6937 20.75 78.1137 20.61C78.5537 20.45 78.9337 20.23 79.2537 19.95C79.5937 19.65 79.8837 19.28 80.1237 18.84V15.63C79.9637 15.19 79.7137 14.82 79.3737 14.52C79.0537 14.2 78.6537 13.96 78.1737 13.8C77.7137 13.62 77.2037 13.53 76.6437 13.53C76.0237 13.53 75.4437 13.69 74.9037 14.01C74.3837 14.31 73.9637 14.73 73.6437 15.27C73.3237 15.81 73.1637 16.43 73.1637 17.13C73.1637 17.83 73.3237 18.46 73.6437 19.02C73.9637 19.58 74.3837 20.02 74.9037 20.34C75.4437 20.66 76.0237 20.82 76.6437 20.82ZM87.6244 17.28C87.6244 15.94 87.9344 14.74 88.5544 13.68C89.1944 12.62 90.0844 11.79 91.2244 11.19C92.3644 10.57 93.6744 10.26 95.1544 10.26C96.6544 10.26 97.9544 10.57 99.0544 11.19C100.154 11.79 100.994 12.62 101.574 13.68C102.174 14.74 102.474 15.94 102.474 17.28C102.474 18.62 102.174 19.83 101.574 20.91C100.994 21.97 100.154 22.81 99.0544 23.43C97.9544 24.05 96.6344 24.36 95.0944 24.36C93.6544 24.36 92.3644 24.08 91.2244 23.52C90.1044 22.96 89.2244 22.15 88.5844 21.09C87.9444 20.03 87.6244 18.76 87.6244 17.28ZM91.8544 17.31C91.8544 17.99 91.9944 18.61 92.2744 19.17C92.5544 19.71 92.9344 20.14 93.4144 20.46C93.8944 20.78 94.4344 20.94 95.0344 20.94C95.6944 20.94 96.2644 20.78 96.7444 20.46C97.2244 20.14 97.5944 19.71 97.8544 19.17C98.1144 18.61 98.2444 17.99 98.2444 17.31C98.2444 16.61 98.1144 15.99 97.8544 15.45C97.5944 14.91 97.2244 14.48 96.7444 14.16C96.2644 13.84 95.6944 13.68 95.0344 13.68C94.4344 13.68 93.8944 13.84 93.4144 14.16C92.9344 14.48 92.5544 14.91 92.2744 15.45C91.9944 15.99 91.8544 16.61 91.8544 17.31ZM109.593 10.89L109.923 13.23L109.863 13.02C110.323 12.2 110.973 11.54 111.813 11.04C112.653 10.52 113.683 10.26 114.903 10.26C116.143 10.26 117.173 10.63 117.993 11.37C118.833 12.09 119.263 13.03 119.283 14.19V24H115.083V15.75C115.063 15.17 114.903 14.71 114.603 14.37C114.323 14.01 113.843 13.83 113.163 13.83C112.523 13.83 111.963 14.04 111.483 14.46C111.003 14.88 110.633 15.45 110.373 16.17C110.113 16.89 109.983 17.72 109.983 18.66V24H105.783V10.89H109.593ZM123.596 10.89H127.796V24H123.596V10.89ZM123.506 6.24C123.506 5.62 123.746 5.11 124.226 4.71C124.726 4.31 125.256 4.11 125.816 4.11C126.376 4.11 126.886 4.31 127.346 4.71C127.826 5.11 128.066 5.62 128.066 6.24C128.066 6.86 127.826 7.37 127.346 7.77C126.886 8.15 126.376 8.34 125.816 8.34C125.256 8.34 124.726 8.15 124.226 7.77C123.746 7.37 123.506 6.86 123.506 6.24Z" fill="#00ADB5"/>
</svg>
